<svg xmlns="http://www.w3.org/2000/svg" width="690" height="454" viewBox="0 0 690 454" version="1.1"><path d="M 153.256 194.590 C 153.581 194.914, 152.531 196.556, 150.923 198.238 C 149.315 199.920, 148 201.905, 148 202.648 C 148 203.392, 147.550 204, 147 204 C 146.450 204, 146 204.927, 146 206.059 C 146 207.191, 145.550 207.840, 145 207.500 C 144.450 207.160, 144 207.835, 144 209 C 144 210.165, 143.550 210.840, 143 210.500 C 142.101 209.944, 141.567 211.257, 141.882 213.250 C 141.947 213.662, 141.250 214, 140.333 214 C 139.417 214, 138.942 214.276, 139.279 214.612 C 139.616 214.949, 138.568 216.637, 136.950 218.362 C 135.333 220.088, 134.007 221.856, 134.005 222.292 C 134.002 222.727, 133.100 224.050, 132 225.230 C 130.900 226.411, 130 227.967, 130 228.689 C 130 229.410, 129.550 230, 129 230 C 128.450 230, 128 230.689, 128 231.531 C 128 232.374, 127.328 233.321, 126.506 233.636 C 125.684 233.952, 125.260 234.612, 125.565 235.105 C 125.869 235.597, 125.641 236, 125.059 236 C 124.477 236, 124 236.848, 124 237.883 C 124 238.926, 123.107 240, 122 240.290 C 120.900 240.577, 120 241.530, 120 242.406 C 120 243.283, 119.550 244, 119 244 C 118.450 244, 118 244.927, 118 246.059 C 118 247.191, 117.550 247.840, 117 247.500 C 116.450 247.160, 116 247.584, 116 248.441 C 116 249.298, 115.550 250, 115 250 C 114.450 250, 114 250.674, 114 251.499 C 114 252.323, 112.200 254.852, 110 257.119 C 107.800 259.386, 106 261.862, 106 262.621 C 106 263.379, 105.550 264, 105 264 C 104.450 264, 104 264.927, 104 266.059 C 104 267.191, 103.550 267.840, 103 267.500 C 102.450 267.160, 102 267.391, 102 268.012 C 102 268.634, 101.321 269.822, 100.491 270.652 C 99.661 271.482, 99.244 272.586, 99.565 273.105 C 99.886 273.625, 99.553 273.926, 98.824 273.775 C 98.096 273.624, 97.612 274.063, 97.750 274.750 C 97.887 275.438, 97.550 276, 97 276 C 96.450 276, 96 276.627, 96 277.393 C 96 278.159, 95.296 279.056, 94.437 279.386 C 93.577 279.716, 93.103 280.357, 93.383 280.811 C 93.663 281.264, 93.017 282.267, 91.946 283.039 C 90.876 283.810, 90 285.269, 90 286.280 C 90 287.291, 89.550 287.840, 89 287.500 C 88.450 287.160, 88 287.584, 88 288.441 C 88 289.298, 87.550 290, 87 290 C 86.450 290, 86 290.900, 86 292 C 86 293.100, 85.662 293.887, 85.250 293.750 C 84.837 293.612, 84.300 293.950, 84.056 294.500 C 83.812 295.050, 82.773 296.400, 81.748 297.500 C 79.887 299.497, 79.936 299.500, 119.188 299.762 C 145.485 299.937, 158.606 299.683, 158.835 298.994 C 159.024 298.428, 159.813 297.329, 160.589 296.554 C 161.365 295.778, 162 294.409, 162 293.512 C 162 292.616, 162.450 292.160, 163 292.500 C 163.550 292.840, 164 292.416, 164 291.559 C 164 290.702, 164.450 290, 165 290 C 165.550 290, 166 289.073, 166 287.941 C 166 286.809, 166.450 286.160, 167 286.500 C 167.550 286.840, 168 286.465, 168 285.666 C 168 284.867, 168.667 283.958, 169.483 283.645 C 170.327 283.321, 170.712 282.413, 170.376 281.538 C 169.982 280.510, 170.375 280, 171.560 280 C 172.535 280, 173.060 279.727, 172.727 279.394 C 172.393 279.060, 172.993 277.850, 174.060 276.705 C 175.127 275.560, 176 274.006, 176 273.252 C 176 272.499, 176.450 272.160, 177 272.500 C 177.550 272.840, 178 272.416, 178 271.559 C 178 270.702, 178.450 270, 179 270 C 179.550 270, 180 269.100, 180 268 C 180 266.900, 179.550 266, 179 266 C 178.450 266, 178.053 265.663, 178.118 265.250 C 178.184 264.837, 178.177 263.825, 178.103 263 C 177.984 261.667, 177.862 261.667, 177 263 C 176.247 264.165, 176.027 263.872, 176.015 261.691 C 176.007 260.076, 175.575 259.145, 175 259.500 C 174.450 259.840, 174 259.136, 174 257.937 C 174 256.096, 173.762 255.952, 172.476 257.020 C 171.638 257.716, 171.163 258.496, 171.422 258.755 C 171.680 259.013, 170.568 260.637, 168.950 262.362 C 167.333 264.088, 166.007 266.063, 166.005 266.750 C 166.002 267.438, 165.550 268, 165 268 C 164.450 268, 164 268.927, 164 270.059 C 164 271.191, 163.550 271.840, 163 271.500 C 162.450 271.160, 162 271.355, 162 271.933 C 162 272.512, 161.054 274.073, 159.897 275.403 C 158.741 276.733, 157.918 277.974, 158.069 278.161 C 158.220 278.347, 156.917 280.063, 155.172 281.973 C 153.427 283.883, 152 286.020, 152 286.723 C 152 288.337, 105.494 288.609, 104.500 287 C 104.160 286.450, 104.359 286, 104.941 286 C 105.523 286, 106 285.073, 106 283.941 C 106 282.809, 106.450 282.160, 107 282.500 C 107.550 282.840, 108 282.609, 108 281.988 C 108 281.366, 108.679 280.178, 109.509 279.348 C 110.339 278.518, 110.756 277.414, 110.435 276.895 C 110.114 276.375, 110.222 276.074, 110.676 276.225 C 111.129 276.376, 111.610 276.161, 111.745 275.746 C 111.880 275.331, 113.343 273.577, 114.995 271.847 C 116.648 270.118, 118 268.095, 118 267.352 C 118 266.608, 118.450 266, 119 266 C 119.550 266, 120 265.073, 120 263.941 C 120 262.809, 120.450 262.160, 121 262.500 C 121.550 262.840, 122 262.665, 122 262.111 C 122 261.556, 123.117 259.898, 124.481 258.426 C 125.846 256.953, 126.719 255.355, 126.422 254.874 C 126.125 254.393, 126.434 254, 127.108 254 C 127.782 254, 128.049 253.715, 127.701 253.367 C 127.353 253.019, 128.178 251.862, 129.534 250.795 C 130.890 249.728, 132 248.213, 132 247.427 C 132 246.642, 132.450 246, 133 246 C 133.550 246, 134 245.073, 134 243.941 C 134 242.809, 134.450 242.160, 135 242.500 C 135.550 242.840, 136 242.465, 136 241.666 C 136 240.867, 136.704 239.944, 137.563 239.614 C 138.423 239.284, 138.845 238.558, 138.500 238 C 138.155 237.442, 138.574 236.717, 139.431 236.388 C 140.288 236.059, 140.790 235.470, 140.548 235.077 C 140.305 234.685, 140.983 233.733, 142.054 232.961 C 143.124 232.190, 144 230.731, 144 229.720 C 144 228.709, 144.450 228.160, 145 228.500 C 145.550 228.840, 146 228.454, 146 227.642 C 146 226.831, 146.563 225.940, 147.250 225.662 C 148.224 225.269, 148.215 225.140, 147.211 225.079 C 146.158 225.015, 146.158 224.744, 147.211 223.605 C 147.920 222.838, 148.838 222.414, 149.250 222.664 C 149.662 222.914, 150 222.465, 150 221.666 C 150 220.867, 150.667 219.958, 151.483 219.645 C 152.299 219.332, 152.730 218.459, 152.440 217.705 C 151.754 215.915, 155.030 215.887, 156.810 217.667 C 157.543 218.400, 157.773 219.014, 157.321 219.030 C 156.870 219.047, 157.287 219.519, 158.250 220.080 C 159.213 220.641, 160 222.004, 160 223.109 C 160 224.214, 160.450 224.840, 161 224.500 C 161.550 224.160, 162 224.809, 162 225.941 C 162 227.073, 162.450 228, 163 228 C 163.550 228, 164 228.702, 164 229.559 C 164 230.416, 164.450 230.840, 165 230.500 C 165.550 230.160, 166 230.809, 166 231.941 C 166 233.073, 166.450 234, 167 234 C 167.550 234, 167.888 234.563, 167.750 235.250 C 167.613 235.938, 168.046 236.393, 168.714 236.262 C 169.413 236.125, 169.687 236.652, 169.360 237.504 C 169.039 238.341, 169.486 239.249, 170.391 239.596 C 171.269 239.934, 171.740 240.612, 171.435 241.105 C 171.131 241.597, 171.584 242, 172.441 242 C 173.333 242, 174 242.855, 174 244 C 174 245.100, 174.477 246, 175.059 246 C 175.641 246, 175.840 246.450, 175.500 247 C 175.160 247.550, 175.584 248, 176.441 248 C 177.333 248, 178 248.855, 178 250 C 178 251.100, 178.477 252, 179.059 252 C 179.641 252, 179.862 252.414, 179.550 252.919 C 179.237 253.425, 179.661 254.518, 180.491 255.348 C 181.321 256.178, 182 257.366, 182 257.988 C 182 258.609, 182.450 258.840, 183 258.500 C 183.550 258.160, 184 258.809, 184 259.941 C 184 261.073, 184.450 262, 185 262 C 185.550 262, 186 262.702, 186 263.559 C 186 264.416, 186.450 264.840, 187 264.500 C 187.550 264.160, 188 264.809, 188 265.941 C 188 267.073, 188.450 268, 189 268 C 189.550 268, 189.888 268.563, 189.750 269.250 C 189.613 269.938, 190.063 270.387, 190.750 270.250 C 191.438 270.112, 192 270.900, 192 272 C 192 273.100, 192.477 274, 193.059 274 C 193.641 274, 193.891 274.368, 193.613 274.818 C 193.334 275.268, 194.181 276.794, 195.494 278.210 C 196.807 279.626, 197.608 281.058, 197.274 281.393 C 196.940 281.727, 197.417 282, 198.333 282 C 199.408 282, 200 282.821, 200 284.311 C 200 285.583, 200.900 287.589, 202 288.770 C 203.100 289.950, 204 291.412, 204 292.017 C 204 292.623, 204.450 292.840, 205 292.500 C 205.550 292.160, 206 292.809, 206 293.941 C 206 295.073, 206.450 296, 207 296 C 207.550 296, 208 296.702, 208 297.559 C 208 298.416, 208.450 298.840, 209 298.500 C 209.550 298.160, 210 298.359, 210 298.941 C 210 299.585, 212.740 300, 217 300 C 222.673 300, 224 299.705, 224 298.441 C 224 297.584, 223.550 297.160, 223 297.500 C 222.450 297.840, 222 297.191, 222 296.059 C 222 294.927, 221.550 294, 221 294 C 220.450 294, 220 293.298, 220 292.441 C 220 291.584, 219.550 291.160, 219 291.500 C 218.450 291.840, 218 291.191, 218 290.059 C 218 288.927, 217.550 288, 217 288 C 216.450 288, 216 287.298, 216 286.441 C 216 285.584, 215.550 285.160, 215 285.500 C 214.450 285.840, 214 285.191, 214 284.059 C 214 282.927, 213.550 282, 213 282 C 212.450 282, 212 281.410, 212 280.689 C 212 279.967, 210.988 278.290, 209.750 276.962 C 208.512 275.634, 207.659 274.384, 207.853 274.184 C 208.047 273.985, 207.372 272.818, 206.353 271.591 C 205.334 270.364, 204.354 268.717, 204.175 267.930 C 203.996 267.144, 203.434 266.350, 202.925 266.167 C 202.416 265.983, 202 265.169, 202 264.358 C 202 263.546, 201.550 263.160, 201 263.500 C 200.450 263.840, 200 263.416, 200 262.559 C 200 261.702, 199.550 261, 199 261 C 198.450 261, 198 260.073, 198 258.941 C 198 257.809, 197.550 257.160, 197 257.500 C 196.450 257.840, 196 257.191, 196 256.059 C 196 254.927, 195.550 254, 195 254 C 194.450 254, 194 253.298, 194 252.441 C 194 251.584, 193.550 251.160, 193 251.500 C 192.450 251.840, 192 251.191, 192 250.059 C 192 248.927, 191.550 248, 191 248 C 190.450 248, 190 247.410, 190 246.689 C 190 245.967, 189.091 244.401, 187.979 243.208 C 186.868 242.015, 185.923 240.693, 185.879 240.269 C 185.836 239.846, 185.362 239.624, 184.826 239.775 C 184.290 239.926, 184.114 239.625, 184.435 239.105 C 184.756 238.586, 184.420 237.562, 183.688 236.831 C 182.956 236.099, 182.164 235.050, 181.929 234.500 C 181.693 233.950, 181.162 233.613, 180.750 233.750 C 180.338 233.888, 180 233.100, 180 232 C 180 230.900, 179.523 230, 178.941 230 C 178.359 230, 178.142 229.579, 178.460 229.065 C 178.778 228.550, 177.905 226.996, 176.519 225.610 C 175.134 224.225, 173.993 222.283, 173.985 221.295 C 173.972 219.770, 173.823 219.726, 173 221 C 172.235 222.183, 172.027 221.960, 172.015 219.939 C 172.007 218.530, 171.213 216.505, 170.250 215.439 C 169.287 214.372, 167.861 212.262, 167.081 210.750 C 166.301 209.238, 165.288 208, 164.831 208 C 164.374 208, 164 207.410, 164 206.689 C 164 205.967, 162.988 204.290, 161.750 202.962 C 160.512 201.634, 159.567 200.311, 159.650 200.023 C 159.733 199.736, 159.395 199.613, 158.900 199.750 C 158.405 199.887, 158 199.100, 158 198 C 158 196.900, 157.523 196, 156.941 196 C 156.359 196, 156.160 195.550, 156.500 195 C 156.841 194.448, 156.121 194, 154.892 194 C 153.668 194, 152.932 194.265, 153.256 194.590 M 215.076 196.250 C 214.303 197.488, 213.774 198.647, 213.901 198.826 C 214.028 199.005, 213.202 199.958, 212.066 200.943 C 210.930 201.928, 210 203.496, 210 204.426 C 210 205.357, 209.550 205.840, 209 205.500 C 208.450 205.160, 208 205.584, 208 206.441 C 208 207.298, 207.550 208, 207 208 C 206.450 208, 206 208.900, 206 210 C 206 211.100, 205.438 211.888, 204.750 211.750 C 204.063 211.613, 203.612 212.063, 203.750 212.750 C 203.887 213.438, 203.550 214, 203 214 C 202.450 214, 202 214.900, 202 216 C 202 217.100, 201.662 217.887, 201.250 217.750 C 200.837 217.612, 200.417 217.872, 200.316 218.326 C 200.214 218.780, 199.202 219.958, 198.066 220.943 C 196.930 221.928, 196 223.496, 196 224.426 C 196 225.357, 195.550 225.840, 195 225.500 C 194.450 225.160, 194 225.377, 194 225.983 C 194 226.588, 193.100 228.050, 192 229.230 C 189.838 231.551, 189.355 234, 191.059 234 C 191.641 234, 191.840 234.450, 191.500 235 C 191.160 235.550, 191.584 236, 192.441 236 C 193.333 236, 194 236.855, 194 238 C 194 239.100, 194.477 240, 195.059 240 C 195.641 240, 195.840 240.450, 195.500 241 C 194.507 242.607, 198.631 242.149, 200 240.500 C 200.685 239.675, 200.968 239, 200.629 239 C 200.290 239, 200.956 237.915, 202.109 236.589 C 203.262 235.263, 204.130 233.879, 204.037 233.514 C 203.944 233.148, 204.798 232.042, 205.934 231.057 C 207.070 230.072, 208 228.504, 208 227.574 C 208 226.643, 208.450 226.160, 209 226.500 C 209.550 226.840, 210 226.416, 210 225.559 C 210 224.702, 210.450 224, 211 224 C 211.550 224, 212 223.100, 212 222 C 212 220.900, 212.338 220.113, 212.750 220.250 C 213.163 220.388, 213.596 220.146, 213.714 219.714 C 213.832 219.282, 214.656 218.201, 215.545 217.312 C 217.034 215.823, 217.333 215.888, 219.331 218.134 C 220.524 219.476, 221.649 221.228, 221.830 222.027 C 222.012 222.827, 222.462 223.710, 222.832 223.991 C 223.201 224.271, 224.141 225.738, 224.921 227.250 C 225.700 228.762, 226.712 230, 227.169 230 C 227.626 230, 228 230.702, 228 231.559 C 228 232.416, 228.450 232.840, 229 232.500 C 229.550 232.160, 230 232.809, 230 233.941 C 230 235.073, 230.450 236, 231 236 C 231.550 236, 232 236.702, 232 237.559 C 232 238.416, 232.450 238.840, 233 238.500 C 233.550 238.160, 234 238.809, 234 239.941 C 234 241.073, 234.450 242, 235 242 C 235.550 242, 235.888 242.563, 235.750 243.250 C 235.613 243.938, 236.046 244.393, 236.714 244.262 C 237.413 244.125, 237.687 244.652, 237.360 245.504 C 237.039 246.341, 237.486 247.249, 238.391 247.596 C 239.269 247.934, 239.740 248.612, 239.435 249.105 C 239.131 249.597, 239.584 250, 240.441 250 C 241.333 250, 242 250.855, 242 252 C 242 253.100, 242.477 254, 243.059 254 C 243.641 254, 243.862 254.414, 243.550 254.919 C 243.237 255.425, 243.548 256.438, 244.241 257.169 C 244.933 257.901, 246.139 259.738, 246.919 261.250 C 247.699 262.762, 248.712 264, 249.169 264 C 249.626 264, 250 264.702, 250 265.559 C 250 266.416, 250.450 266.840, 251 266.500 C 251.550 266.160, 252 266.809, 252 267.941 C 252 269.073, 252.450 270, 253 270 C 253.550 270, 254 270.702, 254 271.559 C 254 272.416, 254.450 272.840, 255 272.500 C 255.550 272.160, 256 272.809, 256 273.941 C 256 275.073, 256.450 276, 257 276 C 257.550 276, 257.887 276.563, 257.750 277.250 C 257.612 277.938, 258.063 278.388, 258.750 278.250 C 259.438 278.113, 260 278.900, 260 280 C 260 281.100, 260.525 282, 261.167 282 C 261.808 282, 262.055 282.279, 261.714 282.619 C 261.374 282.960, 261.636 283.844, 262.298 284.584 C 265.183 287.815, 265.851 288.815, 265.416 289.251 C 265.160 289.506, 265.638 290.284, 266.476 290.980 C 267.314 291.676, 268.001 292.752, 268.001 293.372 C 268.002 293.993, 269.067 295.738, 270.368 297.250 C 272.502 299.731, 273.375 300, 279.307 300 C 286.118 300, 287.921 299.115, 285.759 296.831 C 285.067 296.099, 283.861 294.262, 283.081 292.750 C 282.301 291.238, 281.288 290, 280.831 290 C 280.374 290, 280 289.410, 280 288.689 C 280 287.967, 279.212 286.505, 278.250 285.439 C 277.288 284.372, 275.861 282.262, 275.081 280.750 C 274.301 279.238, 273.288 278, 272.831 278 C 272.374 278, 272 277.325, 272 276.500 C 272 275.675, 271.100 274.100, 270 273 C 268.900 271.900, 267.955 270.663, 267.900 270.250 C 267.845 269.837, 267.340 269.631, 266.777 269.791 C 266.215 269.951, 266.027 269.371, 266.360 268.503 C 266.713 267.585, 266.348 266.687, 265.489 266.357 C 264.676 266.046, 264.210 265.470, 264.452 265.077 C 264.695 264.685, 263.905 263.253, 262.696 261.895 C 261.488 260.537, 260.354 258.768, 260.175 257.963 C 259.996 257.158, 259.434 256.350, 258.925 256.167 C 258.416 255.983, 258 255.169, 258 254.358 C 258 253.546, 257.550 253.160, 257 253.500 C 256.450 253.840, 256 253.165, 256 252 C 256 250.835, 255.550 250.160, 255 250.500 C 254.450 250.840, 254 250.276, 254 249.248 C 254 248.219, 253.213 246.505, 252.250 245.439 C 251.287 244.372, 249.861 242.262, 249.081 240.750 C 248.301 239.238, 247.262 238, 246.772 238 C 246.282 238, 246.162 237.547, 246.504 236.993 C 246.847 236.439, 246.423 235.716, 245.563 235.386 C 244.704 235.056, 244 234.159, 244 233.393 C 244 232.627, 243.523 232, 242.941 232 C 242.359 232, 242.109 231.632, 242.387 231.182 C 242.666 230.732, 241.905 229.253, 240.696 227.895 C 239.488 226.537, 238.351 224.772, 238.170 223.973 C 237.988 223.173, 237.538 222.290, 237.168 222.009 C 236.799 221.729, 235.859 220.262, 235.079 218.750 C 234.300 217.238, 233.288 216, 232.831 216 C 232.374 216, 232 215.392, 232 214.648 C 232 213.905, 230.650 211.884, 229 210.157 C 227.350 208.431, 226 206.339, 226 205.509 C 226 204.679, 225.550 204, 225 204 C 224.450 204, 224.113 203.438, 224.250 202.750 C 224.387 202.063, 223.938 201.613, 223.250 201.750 C 222.563 201.887, 222 201.100, 222 200 C 222 198.900, 221.523 198, 220.941 198 C 220.359 198, 220.146 197.573, 220.469 197.050 C 220.792 196.528, 220.173 195.628, 219.094 195.050 C 216.548 193.688, 216.705 193.641, 215.076 196.250 M 505.407 240 C 505.407 249.075, 505.559 252.787, 505.744 248.250 C 505.929 243.713, 505.929 236.287, 505.744 231.750 C 505.559 227.213, 505.407 230.925, 505.407 240 M 396.286 235.500 C 396.294 238.250, 396.488 239.256, 396.718 237.736 C 396.947 236.216, 396.941 233.966, 396.704 232.736 C 396.467 231.506, 396.279 232.750, 396.286 235.500 M 343.300 251 C 343.300 254.025, 343.487 255.262, 343.716 253.750 C 343.945 252.238, 343.945 249.762, 343.716 248.250 C 343.487 246.738, 343.300 247.975, 343.300 251 M 366.272 274 C 366.272 276.475, 366.467 277.488, 366.706 276.250 C 366.944 275.012, 366.944 272.988, 366.706 271.750 C 366.467 270.512, 366.272 271.525, 366.272 274" stroke="none" fill="#185cae" fill-rule="evenodd"/><path d="M 603.482 214.944 C 602.372 215.395, 600.917 216.829, 600.247 218.132 C 598.389 221.745, 583 260.202, 583 261.231 C 583 262.694, 590.259 261.557, 591.114 259.960 C 591.544 259.157, 592.488 257.150, 593.210 255.500 C 594.474 252.616, 594.787 252.494, 601.337 252.342 C 605.083 252.256, 608.346 251.987, 608.587 251.746 C 608.829 251.505, 608.339 249.663, 607.500 247.654 C 606.095 244.292, 605.646 244, 601.880 244 C 598.399 244, 597.884 243.738, 598.439 242.250 C 601.491 234.078, 605.523 225, 606.102 225 C 606.491 225, 609.869 232.762, 613.607 242.250 C 617.345 251.738, 620.818 260.063, 621.324 260.750 C 622.278 262.045, 629 262.532, 629 261.306 C 629 260.357, 613.142 221.179, 611.370 217.750 C 610.588 216.238, 609.547 215, 609.056 215 C 608.565 215, 607.564 214.803, 606.832 214.563 C 606.099 214.322, 604.592 214.494, 603.482 214.944 M 285 218.973 L 285 222.947 299.750 223.223 L 314.500 223.500 314.628 229 L 314.755 234.500 299.878 234.200 L 285 233.900 285 247.950 L 285 262 288.500 262 L 292 262 292 252 L 292 242 303.944 242 C 314.925 242, 316.102 241.817, 318.531 239.727 C 323.842 235.159, 323.822 221.842, 318.497 217.250 C 316.035 215.126, 315.021 215, 300.444 215 L 285 215 285 218.973 M 336 219 L 336 223 350.433 223 C 366.617 223, 366.351 222.867, 365.782 230.639 L 365.500 234.500 350.721 234.200 L 335.943 233.899 336.221 247.700 L 336.500 261.500 339.500 261.500 L 342.500 261.500 342.786 251.750 L 343.072 242 349.501 242 C 354.936 242, 356.097 242.314, 357.015 244.028 C 357.612 245.143, 358.597 245.749, 359.205 245.373 C 359.861 244.968, 360.027 245.148, 359.613 245.817 C 359.230 246.436, 360.776 250.331, 363.049 254.472 C 367.101 261.855, 367.256 262, 371.090 262 C 373.241 262, 375 261.521, 375 260.934 C 375 260.348, 372.750 256.060, 370 251.404 C 367.250 246.748, 365 242.716, 365 242.445 C 365 242.173, 366.101 241.532, 367.448 241.020 C 372.033 239.276, 373.384 235.369, 373.101 224.673 C 373.027 221.860, 372.225 220.071, 370.077 217.923 L 367.154 215 351.577 215 L 336 215 336 219 M 394.381 216.910 C 389.954 219.609, 389 223.472, 389 238.699 C 389 252.625, 389.682 255.592, 393.725 259.251 C 396.364 261.640, 411.401 262.692, 419.316 261.043 C 428.202 259.191, 428.993 257.348, 428.993 238.500 C 428.993 216.334, 427.837 214.997, 408.685 215.004 C 399.456 215.007, 396.954 215.340, 394.381 216.910 M 444 215.620 C 444 215.961, 447.405 220.913, 451.566 226.623 L 459.132 237.005 456.881 240.253 C 455.643 242.039, 452.014 247.140, 448.815 251.590 C 445.617 256.039, 443 260.201, 443 260.840 C 443 262.974, 449.510 262.157, 451.679 259.750 C 455.758 255.223, 462.848 244.177, 462.183 243.383 C 461.807 242.934, 462.263 243.148, 463.195 243.860 C 464.127 244.571, 466.311 247.367, 468.047 250.073 C 469.783 252.779, 471.533 254.789, 471.935 254.540 C 472.337 254.291, 472.667 254.645, 472.667 255.325 C 472.667 256.005, 473.468 257.785, 474.448 259.281 C 475.881 261.467, 476.991 262, 480.115 262 C 484.988 262, 485.103 260.600, 480.702 254.827 C 476.152 248.856, 469 238.247, 469 237.467 C 469 237.113, 472.375 232.192, 476.500 226.532 C 480.625 220.872, 484 215.961, 484 215.620 C 484 215.279, 482.211 215, 480.025 215 C 476.211 215, 475.819 215.319, 470.275 222.948 C 467.099 227.319, 464.275 230.914, 464 230.938 C 463.725 230.962, 461.025 227.390, 458 223 C 452.587 215.146, 452.432 215.019, 448.250 215.010 C 445.913 215.004, 444 215.279, 444 215.620 M 498 238.500 L 498 262 501.500 262 L 505 262 505 238.500 L 505 215 501.500 215 L 498 215 498 238.500 M 520.802 215.679 C 518.360 216.323, 517.855 221.630, 518.201 243 L 518.500 261.500 521.792 261.817 L 525.085 262.133 524.792 243.150 C 524.569 228.618, 524.778 224.397, 525.683 225.150 C 527.009 226.252, 537 249.419, 537 251.390 C 537 253.491, 541.466 257, 544.140 257 C 546.676 257, 551 253.352, 551 251.213 C 551 249.643, 560.862 226.743, 562.052 225.550 C 562.649 224.951, 563 231.542, 563 243.363 L 563 262.127 566.250 261.813 L 569.500 261.500 569.500 239.332 C 569.500 227.139, 569.185 216.849, 568.799 216.464 C 567.224 214.893, 559.370 214.773, 557.845 216.298 C 557.011 217.132, 553.743 224.385, 550.584 232.417 C 547.424 240.448, 544.473 246.792, 544.026 246.516 C 543.578 246.239, 540.660 239.598, 537.541 231.757 C 534.422 223.915, 531.139 216.938, 530.244 216.250 C 528.665 215.036, 524.256 214.770, 520.802 215.679 M 397.035 224.934 C 396.466 225.998, 396 232.266, 396 238.863 C 396 254.195, 395.833 254, 409 254 C 422.167 254, 422 254.195, 422 238.863 C 422 232.266, 421.534 225.998, 420.965 224.934 C 420.038 223.203, 418.782 223, 409 223 C 399.218 223, 397.962 223.203, 397.035 224.934 M 288.136 274.750 C 288.211 277.363, 288.467 278.488, 288.706 277.250 C 289.038 275.527, 289.826 275, 292.070 275 C 293.681 275, 295 274.628, 295 274.173 C 295 273.718, 293.650 273.545, 292 273.787 C 289.655 274.131, 289 273.850, 289 272.500 C 289 271.157, 289.655 270.869, 291.947 271.206 C 293.568 271.443, 294.667 271.270, 294.388 270.819 C 294.110 270.369, 292.559 270, 290.941 270 C 288.080 270, 288.004 270.129, 288.136 274.750 M 306.750 270.723 C 310.997 271.251, 311.207 274, 307 274 C 305.350 274, 304 274.436, 304 274.969 C 304 275.501, 304.733 275.656, 305.628 275.313 C 306.667 274.914, 307.958 275.559, 309.195 277.094 C 310.795 279.079, 310.956 279.133, 310.114 277.403 C 309.406 275.949, 309.426 274.974, 310.180 274.220 C 312.166 272.234, 310.287 269.989, 306.781 270.160 L 303.500 270.320 306.750 270.723 M 320.872 271.750 C 319.638 273.324, 319.671 273.366, 321.195 272.173 C 323.971 270, 327.451 271.074, 327.813 274.215 C 328.067 276.421, 327.643 277.052, 325.550 277.577 C 324.018 277.961, 322.270 277.694, 321.237 276.916 C 319.588 275.676, 319.588 275.706, 321.234 277.503 C 324.923 281.531, 331.445 275.651, 327.954 271.445 C 326.312 269.466, 322.536 269.628, 320.872 271.750 M 338.291 271.932 C 339.588 273.841, 339.691 274.701, 338.770 275.932 C 337.792 277.239, 337.829 277.293, 338.991 276.257 C 340.121 275.250, 340.872 275.440, 342.943 277.257 L 345.500 279.500 343.217 276.900 C 341.193 274.596, 341.108 274.155, 342.467 273.028 C 343.310 272.328, 344 271.274, 344 270.686 C 344 270.099, 343.366 270.485, 342.590 271.546 C 341.200 273.447, 341.149 273.446, 338.909 271.487 L 336.638 269.500 338.291 271.932 M 353.750 270.662 C 354.438 270.940, 355 272.667, 355 274.500 C 355 276.333, 354.438 278.060, 353.750 278.338 C 353.063 278.615, 353.850 278.842, 355.500 278.842 C 357.150 278.842, 357.938 278.615, 357.250 278.338 C 356.563 278.060, 356 276.333, 356 274.500 C 356 272.667, 356.563 270.940, 357.250 270.662 C 357.938 270.385, 357.150 270.158, 355.500 270.158 C 353.850 270.158, 353.063 270.385, 353.750 270.662 M 385.750 270.662 C 386.438 270.940, 387 272.667, 387 274.500 C 387 276.333, 386.438 278.060, 385.750 278.338 C 385.063 278.615, 385.850 278.842, 387.500 278.842 C 389.150 278.842, 389.938 278.615, 389.250 278.338 C 388.563 278.060, 388 276.333, 388 274.500 C 388 272.667, 388.563 270.940, 389.250 270.662 C 389.938 270.385, 389.150 270.158, 387.500 270.158 C 385.850 270.158, 385.063 270.385, 385.750 270.662 M 399.196 270.679 C 400.362 270.986, 401.010 272.433, 401.271 275.313 L 401.651 279.500 401.825 275.323 C 401.953 272.281, 402.475 271.022, 403.750 270.689 C 404.712 270.438, 403.700 270.232, 401.500 270.232 C 399.300 270.232, 398.263 270.433, 399.196 270.679 M 413 270.655 C 413 271.260, 413.675 272.315, 414.500 273 C 415.325 273.685, 416.061 275.427, 416.136 276.872 L 416.272 279.500 416.727 277 C 416.978 275.625, 417.929 273.600, 418.841 272.500 C 420.473 270.533, 420.465 270.530, 418.351 272.313 C 416.260 274.078, 416.159 274.066, 414.601 271.841 C 413.721 270.584, 413 270.050, 413 270.655 M 438.762 270.707 C 440.006 270.946, 441.806 270.937, 442.762 270.687 C 443.718 270.437, 442.700 270.241, 440.500 270.252 C 438.300 270.263, 437.518 270.468, 438.762 270.707 M 453.200 271.200 C 452.540 271.860, 452.045 273.322, 452.100 274.450 C 452.183 276.166, 452.312 276.092, 452.891 274 C 453.670 271.182, 457.250 270.132, 459.555 272.046 C 460.412 272.757, 461 272.832, 461 272.229 C 461 270.013, 455.158 269.242, 453.200 271.200 M 495.250 271.579 C 496.212 272.722, 497 274.037, 497 274.500 C 497 274.963, 496.212 276.243, 495.250 277.343 C 494.288 278.444, 494.030 279.035, 494.677 278.658 C 495.324 278.281, 497.330 276.066, 499.134 273.736 C 501.107 271.188, 501.535 270.259, 500.207 271.405 C 498.037 273.278, 497.963 273.278, 495.750 271.405 C 493.502 269.502, 493.502 269.502, 495.250 271.579 M 526 274.500 L 526 279 529.750 278.840 C 533.442 278.682, 533.450 278.674, 530.250 278.277 C 526.260 277.781, 525.911 275.298, 529.750 274.716 L 532.500 274.300 529.750 274.150 C 525.797 273.934, 526.192 271.227, 530.250 270.723 C 533.450 270.326, 533.442 270.318, 529.750 270.160 L 526 270 526 274.500 M 541.175 274.250 L 541 279 544.250 278.850 C 547.195 278.714, 547.247 278.662, 544.805 278.289 C 542.449 277.930, 542.061 277.349, 541.729 273.689 L 541.349 269.500 541.175 274.250 M 556.175 274.250 L 556 279 559.250 278.850 C 562.195 278.714, 562.247 278.662, 559.805 278.289 C 557.449 277.930, 557.061 277.349, 556.729 273.689 L 556.349 269.500 556.175 274.250 M 586.007 270.124 C 586.003 270.467, 587.800 272.716, 590 275.123 C 592.200 277.530, 593.978 279.049, 593.951 278.500 C 593.898 277.411, 586.019 269.104, 586.007 270.124 M 603.872 271.750 C 602.630 273.335, 602.665 273.371, 604.244 272.132 C 605.204 271.380, 607.102 270.978, 608.464 271.238 C 609.826 271.498, 610.702 271.326, 610.411 270.856 C 609.487 269.360, 605.297 269.934, 603.872 271.750 M 619 274.500 C 619 278.941, 619.043 278.998, 622.250 278.850 C 625.275 278.711, 625.310 278.671, 622.750 278.284 C 621.237 278.055, 620 277.252, 620 276.500 C 620 275.748, 621.237 274.945, 622.750 274.716 L 625.500 274.300 622.750 274.150 C 621.099 274.060, 620 273.427, 620 272.566 C 620 271.770, 621.223 270.948, 622.750 270.716 C 625.310 270.329, 625.275 270.289, 622.250 270.150 C 619.043 270.002, 619 270.059, 619 274.500 M 459.438 277.101 C 459.038 277.747, 457.466 277.954, 455.629 277.602 C 453.385 277.172, 452.924 277.281, 454 277.986 C 456.177 279.413, 458.574 279.219, 460 277.500 C 460.685 276.675, 460.991 276, 460.681 276 C 460.372 276, 459.812 276.495, 459.438 277.101 M 510.872 277.250 C 512.408 279.208, 514.749 279.477, 517 277.954 C 518.112 277.202, 517.785 277.105, 515.737 277.581 C 514.024 277.979, 512.314 277.706, 511.237 276.862 C 509.666 275.630, 509.631 275.667, 510.872 277.250 M 603.872 277.250 C 605.408 279.208, 607.749 279.477, 610 277.954 C 611.112 277.202, 610.785 277.105, 608.737 277.581 C 607.024 277.979, 605.314 277.706, 604.237 276.862 C 602.666 275.630, 602.631 275.667, 603.872 277.250 M 480 278.173 C 480 278.628, 481.350 279, 483 279 C 484.650 279, 486 278.826, 486 278.613 C 486 278.401, 484.650 278.029, 483 277.787 C 481.350 277.545, 480 277.718, 480 278.173 M 571 278.173 C 571 278.628, 572.350 279, 574 279 C 575.650 279, 577 278.826, 577 278.613 C 577 278.401, 575.650 278.029, 574 277.787 C 572.350 277.545, 571 277.718, 571 278.173" stroke="none" fill="#293f65" fill-rule="evenodd"/><path d="M 284.252 218.500 C 284.263 220.700, 284.468 221.482, 284.707 220.238 C 284.946 218.994, 284.937 217.194, 284.687 216.238 C 284.437 215.282, 284.241 216.300, 284.252 218.500 M 335.252 218.500 C 335.263 220.700, 335.468 221.482, 335.707 220.238 C 335.946 218.994, 335.937 217.194, 335.687 216.238 C 335.437 215.282, 335.241 216.300, 335.252 218.500 M 497.430 238 C 497.430 250.925, 497.573 256.212, 497.747 249.750 C 497.921 243.287, 497.921 232.712, 497.747 226.250 C 497.573 219.787, 497.430 225.075, 497.430 238 M 505.272 220 C 505.272 222.475, 505.467 223.488, 505.706 222.250 C 505.944 221.012, 505.944 218.988, 505.706 217.750 C 505.467 216.512, 505.272 217.525, 505.272 220 M 429.389 238.500 C 429.390 245.650, 429.550 248.444, 429.742 244.708 C 429.935 240.973, 429.934 235.123, 429.739 231.708 C 429.545 228.294, 429.387 231.350, 429.389 238.500 M 388.382 238.500 C 388.384 245.100, 388.546 247.670, 388.741 244.211 C 388.937 240.752, 388.936 235.352, 388.738 232.211 C 388.540 229.070, 388.380 231.900, 388.382 238.500 M 525.409 244.500 C 525.408 253.850, 525.558 257.810, 525.743 253.299 C 525.928 248.789, 525.929 241.139, 525.745 236.299 C 525.562 231.460, 525.410 235.150, 525.409 244.500 M 562.409 244.500 C 562.408 253.850, 562.558 257.810, 562.743 253.299 C 562.928 248.789, 562.929 241.139, 562.745 236.299 C 562.562 231.460, 562.410 235.150, 562.409 244.500 M 284.392 248 C 284.392 255.425, 284.549 258.462, 284.742 254.750 C 284.934 251.037, 284.934 244.963, 284.742 241.250 C 284.549 237.537, 284.392 240.575, 284.392 248 M 335.180 247.691 C 335.081 254.946, 335.337 261.092, 335.750 261.349 C 336.163 261.605, 336.380 257.695, 336.234 252.658 C 335.752 236.117, 335.363 234.283, 335.180 247.691 M 292.365 251.500 C 292.368 257, 292.536 259.122, 292.738 256.216 C 292.941 253.311, 292.939 248.811, 292.734 246.216 C 292.528 243.622, 292.363 246, 292.365 251.500 M 462.336 243.669 C 462.703 244.037, 462.216 245.274, 461.252 246.419 C 459.528 248.467, 459.533 248.472, 461.564 246.764 C 463.222 245.369, 463.904 245.270, 465.037 246.264 C 465.813 246.944, 465.602 246.488, 464.568 245.250 C 463.535 244.012, 462.460 243, 462.178 243 C 461.897 243, 461.968 243.301, 462.336 243.669 M 594.200 253.200 C 593.540 253.860, 593 254.846, 593 255.391 C 593 255.936, 593.563 255.659, 594.250 254.775 C 594.938 253.892, 596.400 252.958, 597.500 252.700 C 599.457 252.242, 599.456 252.230, 597.450 252.116 C 596.322 252.052, 594.860 252.540, 594.200 253.200 M 585.164 274.539 C 585.264 279.522, 587 280.788, 587 275.878 C 587 273.215, 587.221 272.939, 588.500 274 C 591.025 276.095, 590.164 274.503, 587.537 272.219 L 585.075 270.078 585.164 274.539 M 592.829 273.343 C 592.606 275.252, 592.988 277.199, 593.719 277.882 C 594.748 278.843, 595 278.185, 595 274.539 C 595 269.283, 593.405 268.404, 592.829 273.343 M 440 275 C 440 277.200, 440.450 279, 441 279 C 441.550 279, 442 277.200, 442 275 C 442 272.800, 441.550 271, 441 271 C 440.450 271, 440 272.800, 440 275 M 367.160 275.750 L 367.320 279.500 367.728 276.189 C 367.975 274.184, 368.602 273.050, 369.318 273.314 C 369.968 273.554, 370.354 274.356, 370.176 275.097 C 369.957 276.008, 370.477 275.878, 371.781 274.698 C 372.922 273.666, 374.485 273.197, 375.605 273.551 C 377.393 274.117, 377.398 274.086, 375.698 272.997 C 374.358 272.139, 373.546 272.132, 372.537 272.970 C 371.602 273.746, 370.976 273.770, 370.530 273.049 C 370.174 272.472, 369.234 272, 368.441 272 C 367.414 272, 367.046 273.078, 367.160 275.750 M 509 274.500 C 509 275.325, 509.477 276, 510.059 276 C 510.641 276, 510.886 276.375, 510.603 276.833 C 510.320 277.292, 510.665 277.667, 511.371 277.667 C 512.357 277.667, 512.404 277.127, 511.577 275.341 C 510.355 272.703, 509 272.260, 509 274.500 M 602 274.500 C 602 275.325, 602.477 276, 603.059 276 C 603.641 276, 603.886 276.375, 603.603 276.833 C 603.320 277.292, 603.665 277.667, 604.371 277.667 C 605.357 277.667, 605.404 277.127, 604.577 275.341 C 603.355 272.703, 602 272.260, 602 274.500 M 339.281 275.022 C 339.401 275.482, 338.600 276.590, 337.500 277.485 C 335.534 279.083, 335.537 279.093, 337.694 278.050 C 338.901 277.466, 340.170 276.534, 340.513 275.978 C 340.857 275.422, 341.670 275.272, 342.319 275.644 C 342.969 276.016, 343.149 275.935, 342.721 275.465 C 341.674 274.315, 339.006 273.971, 339.281 275.022 M 303 276.659 C 303 277.332, 303.450 278.160, 304 278.500 C 304.550 278.840, 305 278.364, 305 277.442 C 305 276.259, 305.588 275.920, 307.001 276.290 C 308.102 276.578, 308.755 276.412, 308.452 275.922 C 307.639 274.606, 303 275.233, 303 276.659" stroke="none" fill="#25528c" fill-rule="evenodd"/></svg>